<svg width="35" height="35" viewBox="0 0 35 35" fill="none" xmlns="http://www.w3.org/2000/svg">
<rect x="0.5" y="0.5" width="34" height="34" rx="4.5" fill="white" stroke="#DFBF19"/>
<path d="M18 9H11C10.4696 9 9.96086 9.21071 9.58579 9.58579C9.21071 9.96086 9 10.4696 9 11V25C9 25.5304 9.21071 26.0391 9.58579 26.4142C9.96086 26.7893 10.4696 27 11 27H25C25.5304 27 26.0391 26.7893 26.4142 26.4142C26.7893 26.0391 27 25.5304 27 25V18" stroke="#DFBF19" stroke-width="2" stroke-linecap="round" stroke-linejoin="round"/>
<path d="M25.5 7.50023C25.8978 7.1024 26.4374 6.87891 27 6.87891C27.5626 6.87891 28.1022 7.1024 28.5 7.50023C28.8978 7.89805 29.1213 8.43762 29.1213 9.00023C29.1213 9.56284 28.8978 10.1024 28.5 10.5002L19 20.0002L15 21.0002L16 17.0002L25.5 7.50023Z" stroke="#DFBF19" stroke-width="2" stroke-linecap="round" stroke-linejoin="round"/>
</svg>
